<?xml version="1.0" encoding="UTF-8"?>
<svg width="167px" height="127px" viewBox="0 0 167 127" version="1.1" xmlns="http://www.w3.org/2000/svg" xmlns:xlink="http://www.w3.org/1999/xlink">
    <!-- Generator: Sketch 55.2 (78181) - https://sketchapp.com -->
    <title>Group</title>
    <desc>Created with Sketch.</desc>
    <g id="Page-1" stroke="none" stroke-width="1" fill="none" fill-rule="evenodd">
        <g id="NoGPS" transform="translate(-47.000000, -42.000000)">
            <g id="Group" transform="translate(47.000000, 40.000000)">
                <path d="M129,95 L46,95 C42.1340068,95 39,91.8659932 39,88 C39,84.1340068 42.1340068,81 46,81 L7,81 C3.13400675,81 0,77.8659932 0,74 C0,70.1340068 3.13400675,67 7,67 L47,67 C50.8659932,67 54,63.8659932 54,60 C54,56.1340068 50.8659932,53 47,53 L22,53 C18.1340068,53 15,49.8659932 15,46 C15,42.1340068 18.1340068,39 22,39 L62,39 C58.1340068,39 55,35.8659932 55,32 C55,28.1340068 58.1340068,25 62,25 L160,25 C163.865993,25 167,28.1340068 167,32 C167,35.8659932 163.865993,39 160,39 L120,39 C123.865993,39 127,42.1340068 127,46 C127,49.8659932 123.865993,53 120,53 L142,53 C145.865993,53 149,56.1340068 149,60 C149,63.8659932 145.865993,67 142,67 L131.826087,67 C126.951574,67 123,70.1340068 123,74 C123,76.5773288 125,78.9106622 129,81 C132.865993,81 136,84.1340068 136,88 C136,91.8659932 132.865993,95 129,95 Z M160,67 C156.134007,67 153,63.8659932 153,60 C153,56.1340068 156.134007,53 160,53 C163.865993,53 167,56.1340068 167,60 C167,63.8659932 163.865993,67 160,67 Z" id="Background" fill="#DFF6E2"></path>
                <path d="M25.770671,53 L24.8228029,53 C18.7592394,53 13.84375,48.0917143 13.84375,42.037037 C13.84375,35.9823598 18.7592394,31.0740741 24.8228029,31.0740741 C24.861946,31.0740741 24.9010412,31.0742786 24.9400876,31.0746867 C25.9161252,22.58311 32.864638,16 41.2913823,16 C50.1731223,16 57.4126894,23.3132025 57.7478347,32.4661317 C63.118229,32.8127937 67.84375,38.0395888 67.84375,43.4897099 C67.84375,47.9647189 64.5297298,53 60.6035658,53 L33.3020171,53" id="cloud" stroke-opacity="0.607599432" stroke="#3CB44A" stroke-width="2.5" fill="#FFFFFF" stroke-linecap="round"></path>
                <path d="M86.6891949,111.551552 C110.075701,82.7159659 121.75,61.4620704 121.75,48 C121.75,26.5989659 104.401034,9.25 83,9.25 C61.5989659,9.25 44.25,26.5989659 44.25,48 C44.25,61.4620708 55.9242991,82.715967 79.3108061,111.551553 C80.963269,113.589038 83.9545611,113.901161 85.9920458,112.248701 C86.2479819,112.04113 86.4816232,111.807488 86.6891949,111.551552 Z" id="Shape" stroke="#4CC30C" stroke-width="2.5" fill="#FFFFFF"></path>
                <path d="M65.700936,107 C63.2166117,107.444781 60.9224334,107.982411 58.8662181,108.597861 M54.7112883,110.0861 C50.4908011,111.903306 48,114.142558 48,116.564648 C48,122.63978 63.6700338,127.564648 83,127.564648 C102.329966,127.564648 118,122.63978 118,116.564648 C118,112.534543 111.104095,109.010634 100.818421,107.094849" id="Shape" stroke-opacity="0.606889205" stroke="#3CB44A" stroke-width="2.5" stroke-linecap="round"></path>
                <path d="M83,66.75 C93.3553391,66.75 101.75,58.3553391 101.75,48 C101.75,37.6446609 93.3553391,29.25 83,29.25 C72.6446609,29.25 64.25,37.6446609 64.25,48 C64.25,52.2881059 65.6921995,56.3526084 68.3009177,59.6417053 C69.5726578,61.2451275 71.0990747,62.6331427 72.81594,63.7459988 C75.8253841,65.6966925 79.3330341,66.75 83,66.75 Z" id="Oval" stroke="#3CB44A" stroke-width="2.5" fill="#DFF6E2"></path>
                <path d="M122.955219,16.0497735 L121.196699,16.8033009 L121.950227,15.044781 C122.920205,12.7811264 122.920205,10.2188736 121.950227,7.95521898 L121.196699,6.19669914 L122.955219,6.95022654 C125.218874,7.92020468 127.781126,7.92020468 130.044781,6.95022654 L131.803301,6.19669914 L131.049773,7.95521898 C130.079795,10.2188736 130.079795,12.7811264 131.049773,15.044781 L131.803301,16.8033009 L130.044781,16.0497735 C127.781126,15.0797953 125.218874,15.0797953 122.955219,16.0497735 Z" id="Star" stroke="#3CB44A" stroke-width="2.5" stroke-linejoin="round" transform="translate(126.500000, 11.500000) rotate(-315.000000) translate(-126.500000, -11.500000) "></path>
                <path d="M105.690674,95 L105,95 C100.581722,95 97,91.418278 97,87 C97,82.581722 100.581722,79 105,79 C105.028522,79 105.057009,79.0001493 105.085461,79.000447 C105.796661,72.8038911 110.859766,68 117,68 C123.471771,68 128.746957,73.3366613 128.991164,80.0158259 C132.904357,80.2687954 136.347656,84.0829432 136.347656,88.0600586 C136.347656,91.3256057 133.932861,95 131.072021,95 L111.178467,95" id="cloud" stroke-opacity="0.341100306" stroke="#3CB44A" stroke-width="2.5" fill="#FFFFFF" stroke-linecap="round"></path>
            </g>
        </g>
    </g>
</svg>