<svg width="53" height="71" viewBox="0 0 53 71" fill="none" xmlns="http://www.w3.org/2000/svg">
<path d="M6.37336 41.1562L6.37458 41.1578L6.37547 41.1589L6.37927 41.1641L6.41937 41.2195L6.42402 41.226L6.42888 41.2322L6.44667 41.2552L6.44993 41.2594L25.9684 67.6174L26.3702 68.16L26.772 67.6173L44.0552 44.2745L44.6457 43.477H44.6114L46.2183 41.3542C46.2183 41.3542 46.2183 41.3542 46.2184 41.3542C47.8383 39.2149 49.1002 36.8267 49.9547 34.283L49.9549 34.2824C51.3097 30.2324 51.5983 25.9017 50.7931 21.7077C49.9878 17.5137 48.1159 13.5978 45.3575 10.3376C42.5991 7.07735 39.0474 4.58262 35.0447 3.09387C31.042 1.60513 26.7233 1.17259 22.5049 1.83794C18.2865 2.50328 14.3105 4.24407 10.9603 6.89251C7.61013 9.54097 4.99865 13.0077 3.37764 16.9587L3.84022 17.1485L3.37764 16.9587C1.75664 20.9097 1.18076 25.2117 1.70547 29.4499C2.23017 33.6882 3.83778 37.7198 6.37336 41.1562ZM50.5876 33.9668L50.2698 34.915L50.2704 34.9152L50.2711 34.9154L50.7392 35.0726C49.856 37.5429 48.6006 39.8648 47.0156 41.9579L47.0155 41.958L46.9766 42.0094L46.9735 42.0136L26.7914 69.2718L26.7913 69.2717L26.785 69.2806L26.3907 69.8381L25.955 69.2796L5.65248 41.863L5.65257 41.863L5.64602 41.8545L5.6239 41.8259L5.57119 41.7532L5.5682 41.7492L5.56638 41.7467C5.56624 41.7465 5.56611 41.7463 5.56597 41.7461C2.92997 38.1724 1.25866 33.9799 0.713041 29.5728C0.167231 25.1641 0.766268 20.6891 2.45248 16.5792C4.1387 12.4693 6.85523 8.86301 10.3402 6.10804L10.0301 5.7158L10.3402 6.10804C13.8251 3.35306 17.9609 1.54224 22.3491 0.850144L22.2712 0.356249L22.3491 0.850144C26.7372 0.15804 31.2296 0.607985 35.3933 2.15661C39.557 3.70522 43.2516 6.30031 46.1209 9.6917C48.9903 13.0831 50.9376 17.1564 51.7752 21.5192C52.5813 25.7181 52.3334 30.0487 51.0573 34.1239L50.5882 33.967L50.5876 33.9668Z" stroke="currentColor"/>
<path d="M8.04067 38.9726L8.45641 38.6948L8.04068 38.9726C10.4581 42.5904 13.894 45.4102 17.914 47.0753C21.9339 48.7405 26.3575 49.1762 30.6249 48.3273C34.8925 47.4784 38.8126 45.3831 41.8894 42.3064C44.9661 39.2296 47.0614 35.3095 47.9103 31.0419C48.7592 26.7744 48.3235 22.3509 46.6583 18.331C44.9932 14.311 42.1734 10.8751 38.5556 8.45767L38.2778 8.8734L38.5556 8.45766C34.9377 6.04027 30.6842 4.75 26.333 4.75C20.4983 4.75 14.9024 7.06785 10.7766 11.1936C6.65086 15.3194 4.33301 20.9152 4.33301 26.75C4.33301 31.1012 5.62328 35.3547 8.04067 38.9726ZM26.833 3.75V3.75044L27.3117 3.77083C31.5176 3.94992 35.6005 5.28051 39.1111 7.6262C42.8935 10.1535 45.8414 13.7456 47.5823 17.9482C49.323 22.151 49.7785 26.7755 48.8911 31.2371C48.0036 35.6987 45.8131 39.7969 42.5965 43.0134C39.3799 46.23 35.2817 48.4206 30.82 49.3081C26.3585 50.1955 21.734 49.74 17.5312 47.9993C13.3286 46.2584 9.73648 43.3105 7.2092 39.5281C4.68193 35.7457 3.33301 31.299 3.33301 26.75C3.33301 20.65 5.75621 14.7999 10.0696 10.4866L9.716 10.133L10.0696 10.4866C14.3829 6.17321 20.233 3.75 26.333 3.75H26.833Z" stroke="currentColor"/>
<path d="M28.974 9.431C28.9209 9.42133 28.8696 9.40345 28.822 9.378C24.022 16.931 19.234 24.467 14.37 32.116C17.561 32.196 20.588 32.281 23.702 32.366C23.578 36.966 23.465 41.506 23.344 46.046C23.397 46.063 23.432 46.089 23.476 46.103C28.276 38.555 33.064 31.03 37.893 23.403C34.749 23.318 31.709 23.238 28.63 23.161C28.73 18.555 28.859 13.998 28.974 9.435" fill="currentColor"/>
</svg>
