<svg width="36" height="53" viewBox="0 0 36 53" fill="none" xmlns="http://www.w3.org/2000/svg">
<path fill-rule="evenodd" clip-rule="evenodd" d="M23.2956 3.01247C20.7545 2.06737 18.0127 1.79283 15.3346 2.2153C12.6565 2.63777 10.1323 3.74302 8.00551 5.42449C5.87868 7.10597 4.22085 9.30698 3.19185 11.8154C2.16284 14.3237 1.79728 17.0549 2.13055 19.7456C2.46381 22.4362 3.4846 24.9957 5.09449 27.1772L5.10003 27.1847L5.12972 27.2266L5.1436 27.2448L17.7893 44.3202L28.5571 29.779H28.5196L30.3908 27.3011C31.4195 25.9433 32.2202 24.4272 32.7618 22.8121C33.6217 20.2411 33.8049 17.492 33.2938 14.8296C32.7825 12.167 31.5941 9.68095 29.8429 7.61115C28.0916 5.54135 25.8368 3.95757 23.2956 3.01247ZM34.6582 23.4473C35.6274 20.5503 35.8339 17.4525 35.2579 14.4525C34.6819 11.4525 33.3428 8.65141 31.3697 6.31933C29.3966 3.98726 26.856 2.20278 23.9928 1.13792C21.1296 0.0730579 18.0404 -0.236277 15.023 0.23973C12.0055 0.715738 9.16148 1.96104 6.76513 3.85559C4.36879 5.75014 2.50089 8.23005 1.34149 11.0563C0.182105 13.8825 -0.229785 16.9597 0.145714 19.9914C0.520822 23.0199 1.66897 25.9009 3.47961 28.3571L3.51812 28.4114L3.54031 28.4406L16.9849 46.5945L17.8238 47.6463L18.5967 46.5908L18.6016 46.5841L18.6047 46.5798L32.0813 28.3805C32.0944 28.3629 32.1075 28.3453 32.1205 28.3276L32.5268 27.779H32.5093C33.4195 26.4415 34.143 24.9838 34.6582 23.4473Z" fill="currentColor"/>
<path d="M19.512 6.576C19.4771 6.56934 19.4434 6.55755 19.412 6.541C16.238 11.541 13.067 16.526 9.849 21.588C11.961 21.641 13.9639 21.697 16.0239 21.754C15.9419 24.795 15.868 27.802 15.787 30.807C15.822 30.817 15.845 30.835 15.875 30.844C19.05 25.849 22.2189 20.87 25.4149 15.82C23.3349 15.763 21.3229 15.71 19.2859 15.659C19.3499 12.611 19.436 9.595 19.512 6.576Z" fill="currentColor"/>
<path fill-rule="evenodd" clip-rule="evenodd" d="M14.0596 39.2844L17.7893 44.3202L21.5155 39.2868L22.0736 39.3358C25.7538 39.6596 28.9372 40.3818 31.2332 41.3763C32.3785 41.8723 33.3531 42.4575 34.0565 43.1364C34.7614 43.8167 35.2639 44.6642 35.2639 45.65C35.2639 46.8473 34.533 47.8283 33.5836 48.5754C32.6225 49.3317 31.2939 49.9696 29.7419 50.4869C26.6275 51.5252 22.3908 52.151 17.7639 52.151C13.136 52.151 8.89936 51.5252 5.78518 50.4871C4.23332 49.9697 2.90494 49.332 1.94396 48.5758C0.994733 47.8288 0.263916 46.8481 0.263916 45.651C0.263916 44.6633 0.768204 43.8144 1.47542 43.1331C2.18119 42.4533 3.15902 41.8673 4.30845 41.3708C6.61281 40.3752 9.808 39.6535 13.5024 39.3327L14.0596 39.2844ZM18.6041 46.5806L17.8279 47.6482L16.9849 46.5945L13.1207 41.3769C9.80458 41.7072 7.03848 42.37 5.10163 43.2067C4.07694 43.6494 3.3342 44.1196 2.86294 44.5736C2.39313 45.0261 2.26392 45.3887 2.26392 45.651C2.26392 45.9704 2.4581 46.4354 3.18075 47.0041C3.89164 47.5635 4.98201 48.1111 6.41766 48.5897C9.27847 49.5433 13.2918 50.151 17.7639 50.151C22.235 50.151 26.2483 49.5433 29.1094 48.5896C30.5452 48.1109 31.6357 47.5632 32.3468 47.0036C33.0696 46.4349 33.2639 45.9697 33.2639 45.65C33.2639 45.3883 33.1353 45.0268 32.6676 44.5755C32.1985 44.1227 31.4589 43.6535 30.4383 43.2115C28.5098 42.3762 25.7557 41.7135 22.4538 41.3806L18.6041 46.5806Z" fill="currentColor"/>
</svg>
