<svg width="52" height="52" viewBox="0 0 52 52" fill="none" xmlns="http://www.w3.org/2000/svg">
<path d="M26 1.5C12.4691 1.5 1.5 12.4691 1.5 26C1.5 39.5309 12.4691 50.5 26 50.5C39.5309 50.5 50.5 39.5309 50.5 26C50.5 12.4691 39.5309 1.5 26 1.5ZM0.5 26C0.5 11.9167 11.9167 0.5 26 0.5C40.0833 0.5 51.5 11.9167 51.5 26C51.5 40.0833 40.0833 51.5 26 51.5C11.9167 51.5 0.5 40.0833 0.5 26Z" stroke="currentColor"/>
<path d="M39.635 47.2051L39.635 47.2051L39.6755 47.5243L39.4019 47.6933L39.4018 47.6933C35.3742 50.1816 30.734 51.5 26 51.5C21.266 51.5 16.6248 50.1816 12.5972 47.6933L12.5971 47.6933L12.3235 47.5243L12.3639 47.2051C12.3639 47.2051 12.3639 47.2051 12.3639 47.2051C13.0712 41.626 14.7787 36.7298 17.1435 33.2134C19.5036 29.7042 22.5723 27.5 26 27.5C29.4272 27.5 32.4957 29.7042 34.8556 33.2135L35.2705 32.9345L34.8556 33.2135C37.2203 36.7298 38.9278 41.626 39.635 47.2051ZM13.4438 46.6784L13.3963 47.0119L13.6875 47.1812C17.4232 49.3526 21.6712 50.5 26 50.5C30.3288 50.5 34.5757 49.3526 38.3114 47.1812L38.6026 47.0119L38.5551 46.6784C37.8159 41.4899 36.1932 36.9943 34.0258 33.7715C31.7631 30.4067 28.9619 28.5 26 28.5C23.0376 28.5 20.2361 30.4068 17.9733 33.7716C15.8058 36.9943 14.183 41.4899 13.4438 46.6784Z" stroke="currentColor"/>
<path d="M26 12.5C21.8579 12.5 18.5 15.8579 18.5 20C18.5 24.1421 21.8579 27.5 26 27.5C30.1421 27.5 33.5 24.1421 33.5 20C33.5 15.8579 30.1421 12.5 26 12.5ZM17.5 20C17.5 15.3055 21.3055 11.5 26 11.5C30.6945 11.5 34.5 15.3055 34.5 20C34.5 24.6945 30.6945 28.5 26 28.5C21.3055 28.5 17.5 24.6945 17.5 20Z" stroke="currentColor"/>
</svg>
